PathFileType	4	(X/Y/Z)	36_2_25_p1_0-216_filt_butterworth.trc
DataRate	CameraRate	NumFrames	NumMarkers	Units	OrigDataRate	OrigDataStartFrame	OrigNumFrames
46.0	46.0	6	27	m	46.0	108	216
Frame#	Time	RHip			RKnee			RAnkle			RBigToe			RSmallToe			RHeel			LHip			LKnee			LAnkle			LBigToe			LSmallToe			LHeel			Neck			Head			Nose			RShoulder			RElbow			RWrist			RThumb			RIndex			RPinky			LShoulder			LElbow			LWrist			LThumb			LIndex			LPinky			
		X1	Y1	Z1	X2	Y2	Z2	X3	Y3	Z3	X4	Y4	Z4	X5	Y5	Z5	X6	Y6	Z6	X7	Y7	Z7	X8	Y8	Z8	X9	Y9	Z9	X10	Y10	Z10	X11	Y11	Z11	X12	Y12	Z12	X13	Y13	Z13	X14	Y14	Z14	X15	Y15	Z15	X16	Y16	Z16	X17	Y17	Z17	X18	Y18	Z18	X19	Y19	Z19	X20	Y20	Z20	X21	Y21	Z21	X22	Y22	Z22	X23	Y23	Z23	X24	Y24	Z24	X25	Y25	Z25	X26	Y26	Z26	X27	Y27	Z27	
108	2.347826086956522	0.32777586255210794	0.9145021855315487	0.6229611979680003	0.3586118747008076	0.4802666798020583	0.6954524440743168	0.38833669011323557	0.02830087851879102	0.7556536389225094	0.33402126185252407	0.014761572470695122	0.5340017848300544	0.40647506594865107	0.021057841039978584	0.5517239637013746	0.3606929497159527	-0.04943375798227143	0.8422236741967712	0.12050469389147819	0.8930371771036133	0.6018074045031846	0.1365097234781893	0.44721448765982946	0.6967357926629427	0.1594736311448462	0.037151812207749726	0.7230259101012123	0.18837379674331284	0.006830499006531238	0.5390849188286804	0.12733832665918587	-0.013657923932242657	0.5799214709949131	0.176652091868134	-0.0424818246639608	0.7917651475404335	0.165326444892513	1.5257667332621938	0.576257890310301	0.14753247973419725	1.8008652110510408	0.46928515992120434	0.14829194251733055	1.6293618178651892	0.4309017372506355	0.3378388270547986	1.4616999832963264	0.6273591435993423	0.40757835837626244	1.1868240996131425	0.5963304685002939	0.4219967680806569	0.9069802120419584	0.5022948371367961	0.35164800175165944	0.7814013484586332	0.48631258392901155	0.3809057390663505	0.7807302735087501	0.46097286505888324	0.4275521317995351	0.7757062436729801	0.49677174950164504	-0.00026213669031527624	1.436281569431133	0.5728549295591765	0.011672681142335746	1.150462814799788	0.5638714836132384	0.05645344614115421	0.8689062662916897	0.5199583588794318	0.10757769779115611	0.7763074598114275	0.4606648950062933	0.09961156428026846	0.7361023906208712	0.45738664949929253	0.053600475124896435	0.715103579287571	0.5340544550403905	
109	2.369565217391304	0.3278123517030535	0.9143832423690659	0.6227462511884583	0.3582087957540398	0.4803871496121019	0.6953530785112159	0.3882782292464881	0.028675173096454197	0.7555808682444516	0.33403021475767203	0.014769211581343443	0.5339912350721079	0.4064695930604515	0.02067166401495287	0.5516348257375822	0.3609821892581541	-0.048792091273293925	0.8423052368683795	0.12061638150535473	0.8934266826473629	0.6005733710729856	0.13663841873459967	0.4466690492987117	0.6972193724148178	0.15933805296981715	0.036840225275496186	0.7228056217904772	0.18825970886791593	0.0070590443180385265	0.5386149885753065	0.12729659699389786	-0.01372720921343204	0.5801064936864586	0.1764491641505502	-0.042556077808164616	0.7913682038399455	0.16602835209500078	1.5274254861980583	0.5737615932924047	0.1541585382706731	1.8010128883710927	0.4635461057196386	0.15118843474329616	1.631031421779	0.42638409793776816	0.3379123911168599	1.4612817179078588	0.6274257566435101	0.4064893896589843	1.1861799763212781	0.5991062897897496	0.4218214885989878	0.9057733323896987	0.5042654262596327	0.3517051380245384	0.7813266336605691	0.4863895053041963	0.38166753986817525	0.7800725989905546	0.4633180123877775	0.42724263005066865	0.7745265026878414	0.4987770623911899	-0.0004741758177294699	1.4367262366209985	0.5710501367409616	0.011420209664613327	1.1511628128879876	0.5639252939652438	0.056415433066769646	0.8708185106060217	0.519539952390046	0.10750284806424554	0.7765067171367837	0.4603531076898022	0.09955186258039438	0.7360827122772351	0.4575151576455718	0.052047463628213095	0.7157167372201547	0.5337415567188475	
110	2.391304347826087	0.3278214731859228	0.9142014799148108	0.6227559647655666	0.35777092564312823	0.4805140772050378	0.6952356192069273	0.38826835876724947	0.028992452828485164	0.7555285071373647	0.33400685982835343	0.014767917091552993	0.53390612424367	0.40649500938826855	0.01989351615819561	0.5513556044690188	0.36130761204830075	-0.048200976244464275	0.8424339456133542	0.12079850892122793	0.893740491616756	0.5993629003048573	0.13673729291834627	0.44627201147364476	0.6976618847593441	0.15931467328695825	0.03657831644028801	0.7226294130631145	0.18816464775322772	0.007261635189791199	0.5381858620646003	0.12736396645610915	-0.013775630437490912	0.5803419793869671	0.17619551761678218	-0.042516695130236606	0.7908189928320976	0.16661947010514955	1.529765459244815	0.5709921687559442	0.16027579521426444	1.801330422430249	0.4594620406482044	0.15419161579756155	1.6338979463346832	0.42272387166861236	0.3379374523257729	1.4613047592298383	0.6273956493555893	0.40585885215642514	1.1854736605623744	0.6013603454058503	0.4214089664265058	0.9044405801418318	0.5067846009525552	0.3517589858937826	0.7812482866748411	0.48646542877093085	0.3822316976402199	0.7793261148462218	0.4654175615188975	0.4260645537243545	0.7723428160531277	0.5046450772765828	-0.0008778798487586858	1.436805271431418	0.5687355056535028	0.010873564441737593	1.1514324748662534	0.5640147996255627	0.056279746311983236	0.8723558810470026	0.5195120739664141	0.10751225385275147	0.7765593547530998	0.46007356530875604	0.09968951121153166	0.7362345221999834	0.45716706544836744	0.050789404759141066	0.7159429531182637	0.5334364660316451	
111	2.4130434782608696	0.3278438852282141	0.9139247752525732	0.6228222194862371	0.35738234192482193	0.48058308906788566	0.6950995071991617	0.3882811529745333	0.029243648609056233	0.7555049577210616	0.3339764179905824	0.014764446140030925	0.5338148645435197	0.4065426698400171	0.019014699649100374	0.5509896279837545	0.3615946529499898	-0.04749571345286167	0.8425555902592298	0.12106576215752514	0.8940536785477384	0.598057570408056	0.13677228915417453	0.44606356229258526	0.6978311164035886	0.15937711404714655	0.036370258242400796	0.7224981951967222	0.18814343441746317	0.007321507680316419	0.5380306785710958	0.12756477976619296	-0.013790400419947148	0.5805536350937128	0.175911055648062	-0.0423364073064643	0.7899685984169695	0.16713030529757528	1.532201575389747	0.5682706326209399	0.16569599969918386	1.8018390717667032	0.4574110539461594	0.15735532999197446	1.6377741157183572	0.4195050294589526	0.33795387932965554	1.461482505004338	0.6272934361618117	0.4056538235199865	1.184770711570752	0.6026451538302706	0.42084572963069106	0.9031205436314594	0.5095192604021256	0.3518085705970395	0.7811751270404014	0.48652085385077093	0.382544178177613	0.7785646117471237	0.4670719410715599	0.4242997863513146	0.7695407874602651	0.5129700404645626	-0.0013644228955261657	1.4366905082664096	0.5662152629037602	0.01012109551417106	1.1513839312165177	0.5640599215463453	0.056144106861618595	0.8734212478291948	0.5197109280484783	0.10755191454729555	0.7765860907633887	0.4598548134691137	0.09980851340241795	0.7363716306586952	0.4568660735013107	0.0500216990047916	0.7158759380732593	0.5334607775945608	
112	2.4347826086956523	0.3278946921857236	0.9135346650129893	0.6228689574317613	0.3571208781172787	0.480599037840031	0.6949693733990115	0.3883194382058937	0.02941595620308253	0.7555239338840088	0.3339465891119329	0.014762569049186144	0.5337516576321664	0.40657516949577877	0.018311883914835576	0.5506594160708218	0.361842050070879	-0.04660637661945214	0.8426351836175129	0.12142607938316946	0.8943972849053798	0.5966753674455662	0.1367381022951522	0.446050900055244	0.6976731862190169	0.15951913631281794	0.036103984771670324	0.7224494804299925	0.18815679608782462	0.007332994156324386	0.5379796990708244	0.12791442763371935	-0.013762423816455566	0.5806713694755115	0.1756079813381071	-0.04205845408908456	0.7888415736728195	0.1676632332312284	1.5342235493197032	0.5660611537931788	0.17009223326252065	1.8024225363629751	0.4573706096075064	0.16033738811374645	1.642061196090162	0.4167365701503712	0.3379860985383357	1.4615843206068124	0.6271698876170426	0.40572953900624464	1.1840018623171817	0.602810622655937	0.4202018876416871	0.9018439470268721	0.5121829112792511	0.35185504123768163	0.7811238940015176	0.4865253147127001	0.3825894891143473	0.7779641023279316	0.467987009113683	0.4222220721452313	0.7664023611068479	0.5223962224638418	-0.0019013505227748035	1.4367439365867596	0.5637904872548983	0.009477473193219347	1.151238414683605	0.564023680742265	0.05604467435639854	0.8741333089566666	0.5199483613360547	0.1076251635439207	0.7767406963935654	0.45970984435273554	0.09983322636157801	0.736423175148931	0.45678730805403783	0.049960081360486644	0.7157211064948252	0.5338853703236971	
113	2.4565217391304346	0.3279668888956689	0.9130412399058255	0.6229159540485457	0.3569873099046773	0.4806013690298683	0.6948776871458596	0.3883957458859663	0.029487339998481445	0.7555864721292856	0.3339247506373614	0.01476108124833999	0.5337257985059274	0.4065967338522082	0.01794780601000364	0.550469204398863	0.36204803831382876	-0.04574092385329994	0.8426648530078801	0.12178845751286155	0.8946861909973134	0.5955446152397724	0.13663307960985796	0.4462337994228604	0.6972406148241816	0.1596926393969262	0.03569985158321944	0.7224729799159353	0.18817467971128432	0.007354520022757015	0.5379360004128773	0.12831062672173732	-0.01370621988905903	0.5806755208486589	0.17529601515176307	-0.04173695655020959	0.7875693759986557	0.16823461591535765	1.5355740842678138	0.5648398416811231	0.1732750058730156	1.8028309155342592	0.458991088113393	0.16272550048346934	1.6459263016882997	0.41487440262261477	0.33802636347336457	1.4615968158388857	0.6270520062608199	0.40592886495624875	1.1830230267251793	0.6023565556999416	0.4195434067415868	0.900655851959318	0.5144118633497122	0.35189798431935754	0.7810940058670808	0.4864884346468188	0.38246688410164564	0.7777076061234749	0.4683120015521031	0.4199998543867396	0.7631030101995797	0.5321765924359699	-0.002412630174756356	1.4371456915156229	0.5617739296380502	0.008952435753674631	1.1510859036276477	0.5640677840663444	0.05597737253408419	0.8743874582550356	0.520134673442639	0.10776223641493957	0.7769384569284988	0.4596740792485824	0.09982125719877154	0.7364343935588458	0.456781661326563	0.050559514260657454	0.7155234070426898	0.5348288753227292	
